<svg width="1634" height="120" viewBox="0 0 1634 120" fill="none" xmlns="http://www.w3.org/2000/svg">
<path d="M0.914551 117.761V23.2205H25.676C61.8072 23.2205 79.1149 44.3977 79.1149 70.4909C79.1149 96.5842 61.8072 117.761 25.676 117.761H0.914551ZM64.4602 70.4909C64.4602 39.2295 49.6791 25.2374 24.6653 25.2374H14.9376V115.744H24.6653C49.6791 115.744 64.4602 101.752 64.4602 70.4909ZM132.439 70.4567L140.767 62.1841L149.058 70.4567L140.767 78.7663L132.439 70.4567ZM165.494 28.9471C174.333 34.2679 180.859 41.6296 185.072 51.0322C189.089 60.3618 190.136 70.0193 188.213 80.0053C186.167 89.7966 181.565 98.203 174.406 105.224C166.809 112.416 157.848 116.789 147.524 118.345C137.589 119.632 128.13 118.089 119.144 113.716C109.988 109.051 102.951 102.224 98.0328 93.2343C96.8642 91.0234 95.8657 88.7395 95.0379 86.3832C91.7748 76.8346 91.4706 67.1892 94.1248 57.4465C96.9252 47.7765 102.185 39.7103 109.904 33.2475C117.987 26.7119 127.216 23.0553 137.589 22.2778C147.548 21.6947 156.85 23.9178 165.494 28.9471ZM168.014 108.614C172.324 104.799 175.393 99.9401 177.218 94.036C179.045 88.1081 179.532 81.6694 178.68 74.7209C177.852 67.7481 175.612 60.7991 171.959 53.8749V53.8384C168.209 46.9383 163.644 41.2045 158.262 36.6368C152.905 32.0448 147.232 28.8742 141.242 27.1249C135.276 25.3513 129.505 25.2298 123.929 26.7605C123.905 26.7605 123.892 26.7605 123.892 26.7605C120.264 28.1696 116.843 29.9918 113.629 32.2271C109.295 36.0415 106.202 40.9129 104.352 46.8411C102.501 52.7451 101.977 59.1836 102.781 66.1564C103.609 73.1049 105.849 80.0661 109.502 87.0389L109.538 87.1119C113.288 94.0117 117.829 99.7461 123.162 104.313C128.495 108.857 134.132 112.028 140.073 113.825C146.038 115.599 151.81 115.757 157.386 114.299C161.16 112.866 164.703 110.97 168.014 108.614ZM209.103 73.6423L209.988 74.7768C198.112 92.5505 220.221 115.24 242.329 115.24C251.046 115.24 262.163 111.711 262.163 101.248C262.163 79.1887 198.112 74.5247 198.112 47.6751C198.112 32.2965 211.377 22.4642 233.865 22.4642C248.014 22.4642 265.195 29.5233 265.195 42.6329C265.195 51.0786 260.268 57.7594 250.541 63.0537L249.404 61.9192C259.637 46.6667 243.34 24.7332 225.021 24.7332C217.189 24.7332 210.367 28.0106 210.367 36.9605C210.367 66.9614 268.354 64.4403 268.354 91.542C268.354 109.694 255.72 118.77 233.738 118.77C186.742 118.77 185.858 84.9872 209.103 73.6423ZM344.273 117.761H282.37V23.2205H342.252V25.2374H296.393V83.2224C302.962 67.7177 322.038 62.4235 337.452 62.4235V66.4572C327.218 66.4572 317.238 66.9614 309.911 71.3733C303.72 75.0289 296.393 81.7098 296.393 93.4328V115.871H344.273V117.761ZM364.43 73.6423L365.314 74.7768C353.438 92.5505 375.547 115.24 397.655 115.24C406.372 115.24 417.49 111.711 417.49 101.248C417.49 79.1887 353.438 74.5247 353.438 47.6751C353.438 32.2965 366.704 22.4642 389.191 22.4642C403.34 22.4642 420.522 29.5233 420.522 42.6329C420.522 51.0786 415.595 57.7594 405.867 63.0537L404.73 61.9192C414.963 46.6667 398.666 24.7332 380.348 24.7332C372.515 24.7332 365.693 28.0106 365.693 36.9605C365.693 66.9614 423.68 64.4403 423.68 91.542C423.68 109.694 411.047 118.77 389.065 118.77C342.068 118.77 341.184 84.9872 364.43 73.6423ZM474.338 117.761V23.2205H499.1C535.231 23.2205 552.539 44.3977 552.539 70.4909C552.539 96.5842 535.231 117.761 499.1 117.761H474.338ZM537.884 70.4909C537.884 39.2295 523.103 25.2374 498.089 25.2374H488.361V115.744H498.089C523.103 115.744 537.884 101.752 537.884 70.4909ZM629.015 117.761H567.112V23.2205H626.999V25.2374H581.136V83.2224C587.708 67.7177 606.785 62.4235 622.194 62.4235V66.4572C611.96 66.4572 601.981 66.9614 594.656 71.3733C588.467 75.0289 581.136 81.7098 581.136 93.4328V115.871H629.015V117.761ZM676.174 87.3822L665.314 117.761H663.292L696.898 23.2205H705.486L739.092 117.761H724.181L713.321 87.3822H676.174ZM712.689 85.3654L694.748 35.1957L676.934 85.3654H712.689ZM751.232 37.7168V117.761H749.21V23.2205H760.33L796.967 107.929L837.012 23.2205H846.487V117.761H832.468V37.3386L794.568 117.761H785.846L751.232 37.7168ZM903.065 70.4567L911.393 62.1841L919.688 70.4567L911.393 78.7663L903.065 70.4567ZM936.123 28.9471C944.96 34.2679 951.488 41.6296 955.699 51.0322C959.716 60.3618 960.763 70.0193 958.84 80.0053C956.796 89.7966 952.191 98.203 945.032 105.224C937.436 112.416 928.476 116.789 918.153 118.345C908.218 119.632 898.76 118.089 889.773 113.716C880.619 109.051 873.582 102.224 868.662 93.2343C867.492 91.0234 866.495 88.7395 865.664 86.3832C862.406 76.8346 862.101 67.1892 864.755 57.4465C867.553 47.7765 872.812 39.7103 880.53 33.2475C888.614 26.7119 897.846 23.0553 908.218 22.2778C918.175 21.6947 927.479 23.9178 936.123 28.9471ZM938.644 108.614C942.955 104.799 946.019 99.9401 947.847 94.036C949.676 88.1081 950.158 81.6694 949.31 74.7209C948.479 67.7481 946.24 60.7991 942.589 53.8749V53.8384C938.838 46.9383 934.272 41.2045 928.892 36.6368C923.534 32.0448 917.86 28.8742 911.87 27.1249C905.902 25.3513 900.134 25.2298 894.56 26.7605C894.532 26.7605 894.521 26.7605 894.521 26.7605C890.892 28.1696 887.473 29.9918 884.259 32.2271C879.921 36.0415 876.829 40.9129 874.978 46.8411C873.128 52.7451 872.607 59.1836 873.41 66.1564C874.236 73.1049 876.48 80.0661 880.131 87.0389L880.165 87.1119C883.916 94.0117 888.459 99.7461 893.79 104.313C899.12 108.857 904.761 112.028 910.701 113.825C916.668 115.599 922.436 115.757 928.016 114.299C931.79 112.866 935.33 110.97 938.644 108.614ZM982.511 73.2641V117.761H968.487V23.2205H998.68C1017.63 23.2205 1031.4 34.9436 1031.4 48.1793C1031.4 58.5158 1023.07 67.9698 1010.56 71.6254L1039.49 117.761H1022.94L995.017 73.2641H982.511ZM982.511 25.1114V71.2473H996.153C1007.52 71.2473 1016.62 63.1798 1016.62 48.1793C1016.62 33.3049 1007.52 25.1114 996.153 25.1114H982.511ZM1099.1 95.0715V117.761H1085.07V23.2205H1117.54C1136.49 23.2205 1148.24 29.019 1148.24 42.3808C1148.24 66.8354 1099.1 71.3733 1099.1 95.0715ZM1115.15 25.1114L1099.1 25.2374V87.3822C1107.18 71.7515 1133.59 62.1713 1133.59 43.6414C1133.59 28.6409 1126.39 25.1114 1115.15 25.1114ZM1174.36 73.2641V117.761H1160.33V23.2205H1190.52C1209.47 23.2205 1223.25 34.9436 1223.25 48.1793C1223.25 58.5158 1214.91 67.9698 1202.4 71.6254L1231.33 117.761H1214.78L1186.86 73.2641H1174.36ZM1174.36 25.1114V71.2473H1188C1199.37 71.2473 1208.47 63.1798 1208.47 48.1793C1208.47 33.3049 1199.37 25.1114 1188 25.1114H1174.36ZM1283.87 70.7486L1292.2 62.4389L1300.48 70.7486L1292.2 79.0212L1283.87 70.7486ZM1316.92 29.2022C1325.76 34.5474 1332.29 41.909 1336.5 51.2873C1340.52 60.6172 1341.56 70.2748 1339.64 80.2601C1337.6 90.0758 1332.99 98.4944 1325.83 105.516C1318.24 112.683 1309.28 117.045 1298.96 118.599C1289.02 119.887 1279.56 118.345 1270.57 113.971C1261.42 109.331 1254.38 102.503 1249.46 93.4898C1248.29 91.2789 1247.3 88.9949 1246.47 86.6381C1243.2 77.09 1242.9 67.4441 1245.55 57.7014C1248.36 48.0316 1253.61 39.9654 1261.33 33.5026C1269.42 26.967 1278.65 23.3104 1289.02 22.5329C1298.98 21.9742 1308.28 24.1972 1316.92 29.2022ZM1319.45 108.905C1323.75 105.067 1326.82 100.196 1328.65 94.2914C1330.47 88.363 1330.96 81.9248 1330.11 74.9758C1329.28 68.0273 1327.04 61.0789 1323.39 54.13C1319.64 47.2056 1315.07 41.4596 1309.69 36.8919C1304.34 32.3243 1298.66 29.1658 1292.67 27.4164C1286.7 25.6428 1280.94 25.5092 1275.36 27.0156C1275.33 27.0156 1275.32 27.0156 1275.32 27.0156C1271.69 28.4248 1268.27 30.2591 1265.06 32.5186C1260.72 36.3088 1257.63 41.168 1255.78 47.0962C1253.93 53.0002 1253.41 59.4385 1254.21 66.4119C1255.04 73.3847 1257.28 80.3453 1260.93 87.2943L1260.97 87.4032C1264.72 94.2793 1269.26 100.001 1274.59 104.569C1279.92 109.136 1285.56 112.319 1291.5 114.117C1297.47 115.89 1303.24 116.049 1308.81 114.591C1312.59 113.133 1316.13 111.238 1319.45 108.905ZM1306.55 5.58647C1305.7 7.38435 1304.49 8.97573 1302.93 10.3606C1301.4 11.7455 1299.8 12.9117 1298.15 13.8592C1296.52 14.8068 1295.12 15.5235 1293.95 16.0095C1292.78 16.4711 1292.2 16.7019 1292.2 16.7019V14.4788C1293.83 13.6285 1295.21 12.4379 1296.36 10.9073C1297.5 9.37662 1298.44 7.80957 1299.17 6.20602C1299.9 4.57817 1300.42 3.19329 1300.74 2.05138C1301.08 0.885166 1301.25 0.302063 1301.25 0.302063L1306.55 5.58647ZM1362.91 95.0715V117.761H1348.88V23.2205H1381.35C1400.3 23.2205 1412.05 29.019 1412.05 42.3808C1412.05 66.8354 1362.91 71.3733 1362.91 95.0715ZM1378.96 25.1114L1362.91 25.2374V87.3822C1370.99 71.7515 1397.4 62.1713 1397.4 43.6414C1397.4 28.6409 1390.2 25.1114 1378.96 25.1114ZM1438.17 73.2641V117.761H1424.14V23.2205H1454.34C1473.29 23.2205 1487.06 34.9436 1487.06 48.1793C1487.06 58.5158 1478.72 67.9698 1466.21 71.6254L1495.14 117.761H1478.59L1450.67 73.2641H1438.17ZM1438.17 25.1114V71.2473H1451.81C1463.18 71.2473 1472.28 63.1798 1472.28 48.1793C1472.28 33.3049 1463.18 25.1114 1451.81 25.1114H1438.17ZM1506.56 117.761V23.2205H1520.58V117.761H1506.56ZM1577.13 70.4567L1585.46 62.1841L1593.76 70.4567L1585.46 78.7663L1577.13 70.4567ZM1610.19 28.9471C1619.03 34.2679 1625.56 41.6296 1629.77 51.0322C1633.78 60.3618 1634.83 70.0193 1632.91 80.0053C1630.86 89.7966 1626.26 98.203 1619.1 105.224C1611.5 112.416 1602.54 116.789 1592.22 118.345C1582.29 119.632 1572.83 118.089 1563.84 113.716C1554.69 109.051 1547.65 102.224 1542.73 93.2343C1541.56 91.0234 1540.56 88.7395 1539.73 86.3832C1536.47 76.8346 1536.17 67.1892 1538.82 57.4465C1541.62 47.7765 1546.88 39.7103 1554.6 33.2475C1562.68 26.7119 1571.91 23.0553 1582.29 22.2778C1592.24 21.6947 1601.55 23.9178 1610.19 28.9471ZM1612.71 108.614C1617.02 104.799 1620.09 99.9401 1621.91 94.036C1623.74 88.1081 1624.23 81.6694 1623.38 74.7209C1622.55 67.7481 1620.31 60.7991 1616.66 53.8749V53.8384C1612.91 46.9383 1608.34 41.2045 1602.96 36.6368C1597.6 32.0448 1591.93 28.8742 1585.94 27.1249C1579.97 25.3513 1574.2 25.2298 1568.63 26.7605C1568.6 26.7605 1568.59 26.7605 1568.59 26.7605C1564.96 28.1696 1561.54 29.9918 1558.33 32.2271C1553.99 36.0415 1550.9 40.9129 1549.05 46.8411C1547.2 52.7451 1546.67 59.1836 1547.48 66.1564C1548.3 73.1049 1550.55 80.0661 1554.2 87.0389L1554.23 87.1119C1557.98 94.0117 1562.53 99.7461 1567.86 104.313C1573.19 108.857 1578.83 112.028 1584.77 113.825C1590.74 115.599 1596.5 115.757 1602.08 114.299C1605.86 112.866 1609.4 110.97 1612.71 108.614Z" fill="#6D0000"/>
</svg>
