<svg width="185" height="185" viewBox="0 0 185 185" fill="none" xmlns="http://www.w3.org/2000/svg">
<path d="M184.509 98.5929L183.136 96.5255L179.839 91.5615L183.058 86.5467L184.399 84.4567L182.725 82.6218L178.71 78.2195L181.125 72.7725L182.131 70.5023L180.198 68.9443L175.557 65.2059L177.112 59.4539L177.759 57.0573L175.61 55.813L170.454 52.8266L171.112 46.9045L171.388 44.4369L169.074 43.5351L163.521 41.371L163.267 35.4185L163.162 32.9376L160.738 32.3993L154.919 31.1082L153.761 25.2641L153.278 22.8285L150.799 22.6671L144.852 22.2785L142.814 16.6795L141.965 14.346L139.49 14.5645L133.554 15.088L130.685 9.86568L129.49 7.68909L127.078 8.282L121.291 9.70576L117.658 4.98277L116.145 3.01447L113.852 3.96859L108.35 6.25909L104.04 2.14539L102.242 0.431419L100.122 1.7249L95.0329 4.82752L90.1441 1.42064L88.1027 0L86.205 1.60163L81.6509 5.44462L76.2985 2.82334L74.0683 1.73114L72.4374 3.60348L68.5232 8.09632L62.8338 6.32306L60.4631 5.58426L59.1373 7.68363L55.9551 12.721L50.0612 11.8363L47.6054 11.4673L46.6152 13.7446L44.239 19.2087L38.2796 19.2336L35.7958 19.2438L35.1652 21.6451L33.6514 27.408L27.7653 28.3426L25.3127 28.7319L25.0559 31.2018L24.4403 37.1278L18.7656 38.9494L16.4012 39.7085L16.5245 42.1886L16.821 48.1395L11.4913 50.806L9.26888 51.9177L9.76986 54.3494L10.9716 60.1857L6.11162 63.6339L4.08664 65.0709L4.95282 67.3981L7.03087 72.9824L2.7546 77.1319L0.972304 78.8615L2.18339 81.0295L5.09016 86.2307L1.49747 90.9842L0 92.9649L1.52791 94.9223L5.19472 99.6196L2.36989 104.867L1.19236 107.053L3.00119 108.754L7.34222 112.836L5.35157 118.452L4.52207 120.793L6.56968 122.198L11.4835 125.569L10.3738 131.424L9.9111 133.863L12.1491 134.941L17.5202 137.524L17.3173 143.478L17.233 145.961L19.6092 146.683L25.3111 148.416L26.0197 154.332L26.3146 156.797L28.7735 157.148L34.6736 157.991L36.2772 163.729L36.9452 166.12L39.4282 166.092L45.3877 166.024L47.8489 171.45L48.8743 173.711L51.3245 173.305L57.2036 172.328L60.4639 177.316L61.8225 179.394L64.1814 178.618L69.8428 176.755L73.8264 181.187L75.487 183.033L77.7 181.907L83.0102 179.202L87.6244 182.973L89.5472 184.544L91.562 183.093L96.3978 179.61L101.532 182.633L103.673 183.892L105.443 182.151L109.689 177.972L115.227 180.175L117.534 181.094L119.017 179.101L122.576 174.322L128.384 175.655L130.805 176.212L131.966 174.017L134.753 168.75L140.697 169.181L143.174 169.36L143.987 167.015L145.937 161.383L151.876 160.903L154.352 160.702L154.796 158.259L155.864 152.397L161.661 151.015L164.077 150.44L164.145 147.957L164.305 142.001L169.824 139.75L172.124 138.812L171.81 136.349L171.06 130.439L176.17 127.372L178.299 126.094L177.613 123.707L175.969 117.98L180.55 114.17L182.459 112.582L181.417 110.328L178.918 104.919L182.864 100.454L184.509 98.5929ZM177.737 104.744L180.51 110.744L181.229 112.301L179.911 113.398L174.827 117.625L176.651 123.98L177.125 125.628L175.654 126.512L169.984 129.913L170.817 136.471L171.033 138.173L169.445 138.821L163.321 141.318L163.143 147.926L163.097 149.641L161.427 150.039L154.996 151.572L153.811 158.076L153.503 159.764L151.793 159.903L145.203 160.436L143.039 166.683L142.477 168.304L140.766 168.18L134.172 167.702L131.079 173.545L130.277 175.062L128.605 174.678L122.159 173.199L118.211 178.501L117.186 179.878L115.592 179.244L109.45 176.798L104.738 181.436L103.515 182.64L102.037 181.77L96.3377 178.416L90.9728 182.28L89.5807 183.284L88.2526 182.198L83.1335 178.014L77.242 181.014L75.7133 181.793L74.5662 180.517L70.1463 175.6L63.8654 177.667L62.2353 178.203L61.2965 176.767L57.6788 171.233L51.156 172.316L49.4634 172.597L48.7549 171.035L46.0245 165.014L39.4126 165.09L37.6967 165.109L37.2347 163.457L35.4555 157.09L28.91 156.156L27.2112 155.913L27.0076 154.209L26.2218 147.647L19.8956 145.724L18.2537 145.225L18.3122 143.511L18.5378 136.903L12.5791 134.038L11.0325 133.294L11.3524 131.609L12.5838 125.115L7.13231 121.373L5.71755 120.403L6.29032 118.786L8.49869 112.555L3.68243 108.026L2.43232 106.849L3.24543 105.339L6.37928 99.5181L2.31137 94.3068L1.25557 92.9548L2.2903 91.5864L6.27628 86.3119L3.05113 80.5412L2.21461 79.0433L3.44598 77.8489L8.19045 73.2445L5.88455 67.0486L5.28602 65.4407L6.68517 64.4476L12.0773 60.6218L10.7445 54.1474L10.3988 52.4669L11.933 51.6993L17.8464 48.741L17.5179 42.1386L17.4328 40.4254L19.0668 39.9012L25.3626 37.8798L26.0462 31.3048L26.2233 29.5986L27.9182 29.3295L34.4489 28.2927L36.1282 21.8986L36.5636 20.2392L38.2796 20.2322L44.8914 20.2041L47.5274 14.1416L48.2118 12.5681L49.909 12.8224L56.4482 13.8038L59.9785 8.2149L60.8946 6.76462L62.5333 7.27483L68.8455 9.24235L73.1881 4.25724L74.3149 2.96376L75.8561 3.71816L81.7937 6.62653L86.8464 2.36305L88.1574 1.25681L89.5674 2.23511L94.9916 6.01568L100.637 2.57291L102.101 1.67965L103.343 2.8639L108.126 7.42774L114.231 4.88681L115.815 4.22759L116.861 5.58738L120.89 10.8276L127.312 9.24781L128.978 8.83824L129.805 10.3416L132.988 16.1357L139.575 15.5545L141.283 15.4039L141.87 17.0157L144.131 23.2272L150.729 23.6578L152.44 23.7694L152.774 25.4522L154.06 31.9367L160.514 33.369L162.19 33.7412L162.262 35.4551L162.543 42.0598L168.704 44.4611L170.304 45.0844L170.113 46.7891L169.383 53.3594L175.104 56.6727L176.589 57.5324L176.142 59.1887L174.416 65.5702L179.566 69.7175L180.901 70.7941L180.206 72.3621L177.526 78.4059L181.981 83.2904L183.137 84.5581L182.21 86.0022L178.64 91.5661L182.298 97.0732L183.247 98.5024L182.11 99.7873L177.737 104.744Z" fill="#FDFCFC"/>
<path d="M175.896 104.48L181.291 98.3759L176.785 91.5878L181.187 84.731L175.696 78.7106L178.997 71.2631L172.651 66.1507L174.777 58.2862L167.725 54.2035L168.625 46.1067L161.033 43.1471L160.688 35.0074L152.732 33.242L151.148 25.2504L143.015 24.7196L140.229 17.0632L132.111 17.7803L128.188 10.639L120.276 12.5853L115.309 6.12684L107.786 9.25941L101.891 3.63497L94.935 7.87746L88.2489 3.21875L82.0213 8.47296L74.7045 4.88909L69.3523 11.0326L61.5732 8.60702L57.2206 15.4949L49.1616 14.2852L45.9137 21.757L37.7643 21.7912L35.6951 29.6706L27.647 30.9481L26.8051 39.0512L19.0462 41.5423L19.4516 49.6796L12.1645 53.3251L13.8064 61.3042L7.16083 66.0198L10.0033 73.6552L4.15615 79.3287L8.13068 86.4411L3.21826 92.9409L8.23203 99.3627L4.36977 106.537L10.3051 112.119L7.58339 119.799L14.3022 124.408L12.7843 132.414L20.1276 135.946L19.8492 144.088L27.6463 146.456L28.6146 154.545L36.6821 155.698L38.8744 163.543L47.0231 163.452L50.3887 170.872L58.4275 169.536L62.8861 176.356L70.6262 173.809L76.0735 179.868L83.3349 176.17L89.6437 181.326L96.251 176.567L103.273 180.702L109.079 174.986L116.65 178L121.516 171.464L129.458 173.286L133.27 166.086L141.398 166.675L144.065 158.977L152.188 158.319L153.647 150.304L161.574 148.413L161.793 140.269L169.339 137.194L168.313 129.112L175.3 124.918L173.05 117.086L179.315 111.875L175.896 104.48ZM92.0636 171.648C48.4436 171.648 13.0797 136.293 13.0797 92.6907C13.0797 49.0732 48.4436 13.7256 92.0636 13.7256C135.684 13.7256 171.048 49.0732 171.048 92.6907C171.048 136.293 135.684 171.648 92.0636 171.648Z" fill="#FDFCFC"/>
<path d="M101.502 33.3049L90.9804 43.7656L89.0037 45.7309C88.7424 45.9906 88.3792 46.1357 88.0161 46.1357C87.6529 46.1357 87.2889 45.9914 87.0269 45.7309L85.0501 43.7656L79.789 38.5356C79.527 38.2759 79.3818 37.9149 79.3818 37.553C79.3818 37.1911 79.527 36.83 79.789 36.5703L81.7657 34.605C82.0269 34.3445 82.3901 34.2002 82.7541 34.2002C83.1173 34.2002 83.4805 34.3445 83.7425 34.605L88.0153 38.8671L97.5485 29.3743C97.8097 29.1138 98.1729 28.9688 98.5368 28.9688C98.9 28.9688 99.2632 29.1138 99.5244 29.3743L101.502 31.3396C101.762 31.5993 101.909 31.9604 101.909 32.3215C101.908 32.6826 101.763 33.0452 101.502 33.3049Z" fill="#FDFCFC"/>
<path d="M45.5075 59.7565C45.4482 59.8665 45.3627 59.9199 45.2511 59.9199C45.1648 59.9199 45.0548 59.8603 44.9195 59.7418C44.7849 59.6226 44.6013 59.4909 44.371 59.3461C44.1399 59.2021 43.8518 59.0682 43.5059 58.9466C43.16 58.8243 42.7334 58.7639 42.2269 58.7639C41.7196 58.7639 41.2732 58.8343 40.8885 58.976C40.5039 59.1177 40.1802 59.3098 39.9198 59.5544C39.6594 59.7983 39.4615 60.081 39.3262 60.4023C39.1909 60.7236 39.1236 61.0612 39.1236 61.4135C39.1236 61.8758 39.2233 62.2583 39.4243 62.5595C39.6246 62.8614 39.8897 63.1185 40.2182 63.3307C40.5466 63.542 40.9202 63.7209 41.3381 63.8649C41.7552 64.0097 42.1842 64.1522 42.625 64.2939C43.0659 64.4356 43.4948 64.5912 43.9119 64.7616C44.329 64.9311 44.7026 65.1456 45.0318 65.4019C45.3611 65.659 45.6254 65.9749 45.8257 66.3512C46.0259 66.7267 46.1272 67.1936 46.1272 67.7534C46.1272 68.3248 46.0275 68.8638 45.8265 69.367C45.6262 69.8711 45.335 70.3101 44.9543 70.6826C44.5736 71.055 44.1066 71.3492 43.555 71.5637C43.0033 71.779 42.3725 71.8866 41.6634 71.8866C40.7437 71.8866 39.953 71.7271 39.2898 71.4096C38.6265 71.0914 38.0448 70.6562 37.5454 70.1026L37.8216 69.6783C37.9008 69.5823 37.9926 69.5335 38.0978 69.5335C38.1572 69.5335 38.2324 69.5715 38.325 69.6489C38.4168 69.7263 38.5284 69.8208 38.6606 69.9331C38.792 70.0453 38.9495 70.1677 39.1339 70.2993C39.3175 70.4317 39.5312 70.5533 39.775 70.6655C40.0179 70.7786 40.2973 70.873 40.6131 70.9497C40.9289 71.0264 41.2874 71.0651 41.6887 71.0651C42.2412 71.0651 42.7342 70.983 43.1687 70.8196C43.6033 70.6562 43.9697 70.4325 44.2689 70.1499C44.5673 69.8672 44.796 69.532 44.9543 69.1425C45.1118 68.7538 45.1901 68.338 45.1901 67.8943C45.1901 67.412 45.0904 67.0163 44.8894 66.7043C44.6891 66.3922 44.424 66.1328 44.0955 65.923C43.7663 65.7147 43.3935 65.5389 42.9748 65.398C42.5577 65.2563 42.1288 65.1185 41.6879 64.983C41.2471 64.8483 40.8181 64.6973 40.401 64.53C39.9839 64.3636 39.6103 64.1499 39.2819 63.8889C38.9526 63.6295 38.6883 63.3043 38.488 62.9164C38.2878 62.5285 38.1865 62.0415 38.1865 61.4569C38.1865 61.0008 38.2751 60.561 38.4524 60.1359C38.6297 59.7116 38.8901 59.3376 39.232 59.0124C39.5747 58.6888 39.9966 58.4278 40.4999 58.2327C41.0033 58.0376 41.5763 57.9385 42.2214 57.9385C42.944 57.9385 43.5938 58.0508 44.1684 58.2753C44.7445 58.5006 45.2677 58.8444 45.741 59.3067L45.5075 59.7565Z" fill="#FDFCFC"/>
<path d="M59 71.8866H58.2603C58.173 71.8866 58.1015 71.8613 58.0443 71.8129C57.9879 71.7638 57.9443 71.6997 57.9134 71.6205L56.3498 67.5686H49.8411L48.2865 71.6205C48.2617 71.6926 48.218 71.7559 48.1556 71.8074C48.0931 71.8597 48.0179 71.8866 47.9306 71.8866H47.2L52.6221 57.9385H53.5778L59 71.8866ZM50.1323 66.8193H56.0699L53.3633 59.772C53.3197 59.6603 53.276 59.5344 53.2324 59.3926C53.1887 59.2516 53.1451 59.1019 53.1015 58.9443C53.0578 59.1019 53.0142 59.2516 52.9705 59.3926C52.9269 59.5344 52.8832 59.6635 52.8396 59.7823L50.1323 66.8193Z" fill="#FDFCFC"/>
<path d="M68.6545 57.9385V58.7954H63.803V71.8866H62.8078V58.7954H57.9272V57.9385H68.6545Z" fill="#FDFCFC"/>
<path d="M72.9453 71.8866H71.8726V57.9385H72.9453V71.8866Z" fill="#FDFCFC"/>
<path d="M84.124 59.7565C84.0647 59.8665 83.9792 59.9199 83.8676 59.9199C83.7813 59.9199 83.6713 59.8603 83.5367 59.7418C83.4022 59.6226 83.2185 59.4909 82.9882 59.3461C82.7578 59.2021 82.4697 59.0682 82.1238 58.9466C81.7779 58.8243 81.3505 58.7639 80.8447 58.7639C80.3373 58.7639 79.8909 58.8343 79.5054 58.976C79.1207 59.1177 78.797 59.3098 78.5374 59.5544C78.277 59.7983 78.0791 60.081 77.9437 60.4023C77.8076 60.7236 77.7411 61.0612 77.7411 61.4135C77.7411 61.8758 77.8408 62.2583 78.0419 62.5595C78.2421 62.8614 78.5073 63.1185 78.8358 63.3307C79.1643 63.542 79.5379 63.7209 79.9566 63.8649C80.3737 64.0097 80.8028 64.1522 81.2436 64.2939C81.6845 64.4356 82.1135 64.5912 82.5307 64.7616C82.9478 64.9311 83.3206 65.1456 83.6499 65.4019C83.9792 65.659 84.2436 65.9749 84.4438 66.3512C84.6441 66.7267 84.7454 67.1936 84.7454 67.7534C84.7454 68.3248 84.6457 68.8638 84.4446 69.367C84.2444 69.8711 83.9539 70.3101 83.5723 70.6826C83.1916 71.055 82.7254 71.3492 82.1729 71.5637C81.6212 71.779 80.9911 71.8866 80.2811 71.8866C79.3622 71.8866 78.5706 71.7271 77.9073 71.4096C77.244 71.0914 76.6622 70.6562 76.1636 70.1026L76.439 69.6783C76.5182 69.5823 76.61 69.5335 76.7153 69.5335C76.7739 69.5335 76.8498 69.5715 76.9417 69.6489C77.0335 69.7263 77.1451 69.8208 77.2773 69.9331C77.4087 70.0453 77.5662 70.1677 77.7514 70.2993C77.935 70.4317 78.1487 70.5533 78.3917 70.6655C78.6347 70.7786 78.9142 70.873 79.2308 70.9497C79.5466 71.0264 79.9052 71.0651 80.3065 71.0651C80.859 71.0651 81.3521 70.983 81.7866 70.8196C82.2204 70.6562 82.5869 70.4325 82.8861 70.1499C83.1853 69.8672 83.414 69.532 83.5708 69.1425C83.7291 68.7538 83.8074 68.338 83.8074 67.8943C83.8074 67.412 83.7077 67.0163 83.5066 66.7043C83.3064 66.3922 83.0412 66.1328 82.7127 65.923C82.3835 65.7147 82.0106 65.5389 81.5919 65.398C81.1748 65.2563 80.7458 65.1185 80.3049 64.983C79.864 64.8475 79.435 64.6973 79.0178 64.53C78.6007 64.3636 78.2263 64.1499 77.8978 63.8889C77.5685 63.6295 77.3042 63.3043 77.1039 62.9164C76.9037 62.5285 76.8023 62.0415 76.8023 61.4569C76.8023 61.0008 76.8918 60.561 77.0691 60.1359C77.2464 59.7116 77.506 59.3376 77.848 59.0124C78.1907 58.6888 78.6126 58.4278 79.116 58.2327C79.6194 58.0376 80.1933 57.9385 80.8376 57.9385C81.5611 57.9385 82.2101 58.0508 82.7856 58.2753C83.361 58.5006 83.885 58.8444 84.3583 59.3067L84.124 59.7565Z" fill="#FDFCFC"/>
<path d="M95.4727 57.9385V58.7757H87.9339V64.6417H94.4597V65.4789H87.9339V71.8866H86.8909V57.9385H95.4727Z" fill="#FDFCFC"/>
<path d="M107.273 71.8866H106.533C106.445 71.8866 106.373 71.8613 106.318 71.8129C106.261 71.7638 106.217 71.6997 106.186 71.6205L104.622 67.5686H98.1139L96.5593 71.6205C96.5344 71.6926 96.4893 71.7559 96.4283 71.8074C96.3651 71.8597 96.2914 71.8866 96.2033 71.8866H95.4727L100.894 57.9385H101.851L107.273 71.8866ZM98.4029 66.8193H104.342L101.635 59.772C101.591 59.6603 101.547 59.5344 101.504 59.3926C101.46 59.2516 101.417 59.1019 101.373 58.9443C101.329 59.1019 101.285 59.2516 101.242 59.3926C101.198 59.5344 101.155 59.6635 101.111 59.7823L98.4029 66.8193Z" fill="#FDFCFC"/>
<path d="M113.709 74.3191C113.743 74.3191 113.787 74.3361 113.845 74.3716C113.901 74.4064 113.977 74.4458 114.067 74.4867C114.157 74.5277 114.269 74.5663 114.404 74.6018C114.539 74.6366 114.702 74.6543 114.897 74.6543C115.24 74.6543 115.507 74.584 115.698 74.4435C115.889 74.3021 115.985 74.1106 115.985 73.8665C115.985 73.7058 115.94 73.573 115.854 73.468C115.767 73.3621 115.642 73.2741 115.481 73.2038C115.32 73.1335 115.13 73.0787 114.911 73.0408C114.693 73.0022 114.454 72.9667 114.191 72.935L114.553 71.8297C113.632 71.778 112.791 71.5764 112.029 71.2234C111.267 70.8704 110.613 70.3931 110.068 69.7914C109.523 69.1897 109.101 68.4745 108.799 67.6481C108.497 66.8208 108.345 65.9017 108.345 64.8884C108.345 63.8565 108.515 62.9149 108.855 62.0622C109.195 61.2095 109.672 60.4781 110.286 59.8656C110.901 59.2538 111.637 58.7796 112.493 58.4428C113.351 58.1069 114.296 57.9385 115.33 57.9385C115.848 57.9385 116.321 57.9755 116.75 58.0489C117.18 58.1223 117.582 58.2281 117.954 58.3656C118.327 58.5039 118.68 58.6753 119.009 58.88C119.336 59.0855 119.66 59.3218 119.975 59.5914L119.663 60.0239C119.609 60.1011 119.525 60.139 119.41 60.139C119.351 60.139 119.272 60.1058 119.178 60.0378C119.084 59.9698 118.965 59.8872 118.821 59.7876C118.677 59.6879 118.501 59.5798 118.297 59.4608C118.093 59.3419 117.849 59.2338 117.567 59.1341C117.284 59.0345 116.959 58.9518 116.589 58.8839C116.22 58.8174 115.799 58.7827 115.329 58.7827C114.462 58.7827 113.665 58.9256 112.94 59.2106C112.216 59.4964 111.591 59.9026 111.067 60.4309C110.543 60.96 110.135 61.6011 109.841 62.3542C109.549 63.1065 109.404 63.9515 109.404 64.8868C109.404 65.8484 109.548 66.7065 109.837 67.4627C110.125 68.2189 110.525 68.8592 111.035 69.3805C111.545 69.9019 112.148 70.3027 112.844 70.5823C113.539 70.8604 114.293 71.0002 115.106 71.0002C115.616 71.0002 116.072 70.9678 116.472 70.9036C116.871 70.8395 117.238 70.7438 117.575 70.6156C117.911 70.4873 118.224 70.3305 118.513 70.1452C118.801 69.9598 119.088 69.742 119.369 69.4917C119.403 69.4655 119.434 69.4454 119.465 69.4292C119.494 69.413 119.531 69.4045 119.571 69.4045C119.638 69.4045 119.695 69.4276 119.742 69.4717L120.145 69.8857C119.85 70.1807 119.531 70.4472 119.193 70.6843C118.854 70.9214 118.48 71.1245 118.074 71.2945C117.667 71.4636 117.222 71.5972 116.74 71.693C116.255 71.7896 115.728 71.8398 115.157 71.8467L114.925 72.5681C115.523 72.6701 115.978 72.8176 116.291 73.0099C116.604 73.2023 116.759 73.4873 116.759 73.865C116.759 74.0573 116.714 74.2303 116.624 74.384C116.532 74.5377 116.404 74.6675 116.239 74.7733C116.075 74.8791 115.879 74.9602 115.65 75.0181C115.421 75.076 115.172 75.1054 114.904 75.1054C114.629 75.1054 114.36 75.0683 114.097 74.9949C113.836 74.9208 113.617 74.8235 113.443 74.7014L113.544 74.4319C113.587 74.357 113.641 74.3191 113.709 74.3191Z" fill="#FDFCFC"/>
<path d="M133.018 71.8865H132.279C132.191 71.8865 132.119 71.8624 132.063 71.8164C132.008 71.7697 131.963 71.7087 131.932 71.6334L130.368 67.7803H123.859L122.306 71.6334C122.281 71.7019 122.236 71.7622 122.174 71.8111C122.112 71.8609 122.037 71.8865 121.95 71.8865H121.218L126.641 58.6228H127.596L133.018 71.8865ZM124.149 67.0678H130.087L127.382 60.3663C127.337 60.2601 127.293 60.1404 127.25 60.0056C127.206 59.8715 127.162 59.7292 127.118 59.5793C127.075 59.7292 127.031 59.8715 126.988 60.0056C126.944 60.1404 126.901 60.2632 126.857 60.3761L124.149 67.0678ZM128.233 56.7384C128.495 56.7384 128.693 56.6526 128.832 56.4809C128.969 56.3091 129.04 56.0885 129.047 55.8196H129.552C129.552 56.0388 129.524 56.2398 129.469 56.4244C129.412 56.6089 129.33 56.7716 129.225 56.9117C129.119 57.0525 128.983 57.1617 128.818 57.24C128.652 57.3184 128.462 57.3575 128.251 57.3575C128.045 57.3575 127.848 57.3078 127.661 57.2076C127.473 57.1075 127.292 57.0005 127.118 56.8845C126.943 56.7693 126.772 56.6616 126.607 56.5614C126.442 56.4613 126.276 56.4116 126.105 56.4116C125.843 56.4116 125.646 56.4989 125.513 56.6737C125.377 56.8484 125.304 57.0676 125.292 57.3297H124.768C124.768 57.1173 124.797 56.9177 124.856 56.7301C124.915 56.5426 125.001 56.3792 125.114 56.2383C125.227 56.0975 125.364 55.9883 125.526 55.91C125.689 55.8324 125.876 55.7925 126.088 55.7925C126.301 55.7925 126.501 55.8429 126.689 55.9424C126.876 56.0425 127.056 56.1502 127.231 56.2662C127.405 56.3822 127.574 56.4899 127.736 56.5893C127.899 56.688 128.065 56.7384 128.233 56.7384Z" fill="#FDFCFC"/>
<path d="M148.036 64.9121C148.036 65.9671 147.867 66.9236 147.53 67.7824C147.192 68.6412 146.717 69.3745 146.103 69.9814C145.49 70.5898 144.756 71.0596 143.902 71.3898C143.047 71.7207 142.099 71.8866 141.059 71.8866C140.031 71.8866 139.09 71.7207 138.236 71.3898C137.383 71.0588 136.647 70.5883 136.034 69.9814C135.421 69.3745 134.944 68.6412 134.603 67.7824C134.261 66.9243 134.091 65.9671 134.091 64.9121C134.091 63.8642 134.261 62.91 134.603 62.0528C134.943 61.1939 135.42 60.4607 136.034 59.853C136.647 59.2453 137.383 58.774 138.236 58.44C139.09 58.1059 140.031 57.9385 141.059 57.9385C142.099 57.9385 143.047 58.1036 143.902 58.4353C144.756 58.7663 145.49 59.2376 146.103 59.8491C146.716 60.4599 147.192 61.1939 147.53 62.0535C147.867 62.9093 148.036 63.8642 148.036 64.9121ZM146.94 64.9121C146.94 63.9603 146.798 63.1046 146.515 62.3458C146.232 61.5869 145.835 60.9436 145.321 60.4165C144.808 59.8887 144.189 59.4856 143.466 59.2058C142.743 58.9267 141.939 58.7857 141.057 58.7857C140.188 58.7857 139.394 58.926 138.675 59.2058C137.955 59.4856 137.334 59.8894 136.814 60.4165C136.293 60.9436 135.89 61.5869 135.604 62.3458C135.318 63.1046 135.175 63.9603 135.175 64.9121C135.175 65.8702 135.318 66.7282 135.604 67.4832C135.89 68.2389 136.293 68.8807 136.814 69.407C137.334 69.9341 137.954 70.3364 138.675 70.6131C139.394 70.8898 140.189 71.0285 141.057 71.0285C141.939 71.0285 142.742 70.8906 143.466 70.6131C144.189 70.3364 144.808 69.9349 145.321 69.407C145.835 68.8792 146.233 68.2382 146.515 67.4832C146.799 66.7267 146.94 65.8702 146.94 64.9121Z" fill="#FDFCFC"/>
<path d="M44.2422 139.754C44.7116 139.754 45.1388 139.731 45.5253 139.682C45.9117 139.633 46.27 139.562 46.601 139.465C46.9319 139.368 47.248 139.253 47.5468 139.113C47.8449 138.975 48.1461 138.82 48.4488 138.646V134.974H45.8241C45.7537 134.974 45.6942 134.951 45.645 134.906C45.5972 134.859 45.5722 134.809 45.5722 134.751V134.212H49.3454V139.06C49.0043 139.3 48.6507 139.511 48.2846 139.696C47.9176 139.883 47.5241 140.038 47.1071 140.166C46.6894 140.289 46.2387 140.387 45.756 140.452C45.2733 140.52 44.746 140.554 44.1734 140.554C43.1892 140.554 42.2903 140.389 41.4774 140.058C40.663 139.727 39.966 139.258 39.3831 138.65C38.8003 138.042 38.3489 137.308 38.0281 136.448C37.7066 135.587 37.5454 134.63 37.5454 133.575C37.5454 132.522 37.7066 131.566 38.0281 130.708C38.3497 129.85 38.8065 129.117 39.3988 128.51C39.9894 127.902 40.7084 127.433 41.5549 127.102C42.4014 126.77 43.348 126.606 44.3963 126.606C44.9174 126.606 45.3985 126.641 45.839 126.711C46.2794 126.783 46.6894 126.887 47.0688 127.024C47.4482 127.162 47.8019 127.333 48.1304 127.535C48.4582 127.737 48.7735 127.97 49.0755 128.234L48.815 128.658C48.7571 128.755 48.6773 128.805 48.574 128.805C48.5161 128.805 48.4606 128.79 48.4105 128.765C48.3143 128.726 48.1742 128.636 47.9912 128.494C47.8081 128.353 47.5601 128.206 47.248 128.053C46.935 127.897 46.5454 127.76 46.0752 127.637C45.6058 127.516 45.0355 127.454 44.3666 127.454C43.4794 127.454 42.6783 127.595 41.9641 127.878C41.2498 128.161 40.6411 128.566 40.1357 129.093C39.6303 129.62 39.2415 130.263 38.9685 131.02C38.6954 131.78 38.5578 132.631 38.5578 133.575C38.5578 134.539 38.6962 135.405 38.9732 136.169C39.2501 136.933 39.6374 137.582 40.1357 138.111C40.6341 138.64 41.2326 139.048 41.9304 139.332C42.629 139.614 43.3996 139.754 44.2422 139.754Z" fill="#FDFCFC"/>
<path d="M63.2907 140.554H62.5511C62.4638 140.554 62.3924 140.532 62.3354 140.485C62.2792 140.439 62.2352 140.381 62.2041 140.308L60.6405 136.568H54.1311L52.5774 140.308C52.5516 140.374 52.5083 140.431 52.446 140.481C52.383 140.528 52.3078 140.552 52.2212 140.552H51.4907L56.9135 127.679H57.8688L63.2907 140.554ZM54.4219 135.877H60.3595L57.6531 129.373C57.609 129.271 57.5665 129.153 57.5225 129.022C57.4784 128.891 57.4351 128.754 57.3911 128.607C57.3471 128.753 57.3038 128.892 57.2597 129.022C57.2157 129.152 57.1724 129.272 57.1284 129.381L54.4219 135.877Z" fill="#FDFCFC"/>
<path d="M66.4446 134.73V140.554H65.4363V127.679H69.0069C70.6233 127.679 71.8299 127.966 72.6281 128.538C73.4262 129.111 73.8249 129.954 73.8249 131.063C73.8249 131.555 73.7327 132.003 73.5482 132.41C73.3637 132.817 73.0981 133.172 72.7516 133.479C72.4058 133.785 71.9879 134.036 71.4994 134.234C71.0108 134.431 70.4613 134.559 69.8476 134.62C70.0056 134.711 70.1476 134.832 70.2728 134.983L75.0908 140.552H74.21C74.1041 140.552 74.0135 140.534 73.9381 140.498C73.8627 140.461 73.788 140.4 73.715 140.315L69.2331 135.093C69.1208 134.96 69.0005 134.865 68.8713 134.811C68.743 134.756 68.5424 134.729 68.2721 134.729L66.4446 134.73ZM66.4446 134.038H68.8785C69.4987 134.038 70.0546 133.969 70.5463 133.833C71.0373 133.698 71.4528 133.502 71.793 133.247C72.1323 132.992 72.3914 132.686 72.5695 132.328C72.7476 131.971 72.8366 131.567 72.8366 131.117C72.8366 130.202 72.5101 129.523 71.8571 129.08C71.2041 128.638 70.2535 128.416 69.0077 128.416H66.4455L66.4446 134.038Z" fill="#FDFCFC"/>
<path d="M87.9635 140.554H87.1566C87.0613 140.554 86.9835 140.532 86.9213 140.485C86.86 140.439 86.812 140.381 86.7788 140.308L85.073 136.568H77.9714L76.2755 140.308C76.2482 140.374 76.201 140.431 76.133 140.481C76.0643 140.528 75.9831 140.552 75.8878 140.552H75.0908L81.0061 127.679H82.0483L87.9635 140.554ZM78.2887 135.877H84.7665L81.8147 129.373C81.7666 129.271 81.7194 129.153 81.6713 129.022C81.6241 128.891 81.5761 128.754 81.5288 128.607C81.4808 128.753 81.4336 128.892 81.3855 129.022C81.3375 129.152 81.2902 129.272 81.2422 129.381L78.2887 135.877Z" fill="#FDFCFC"/>
<path d="M90.7462 127.713C90.7935 127.733 90.843 127.78 90.896 127.853L98.9949 139.007C98.977 138.825 98.9677 138.65 98.9677 138.479V127.679H99.7634V140.554H99.3297C99.1949 140.554 99.0852 140.493 99.0042 140.372L90.8695 129.199C90.8867 129.381 90.8968 129.552 90.8968 129.717V140.553H90.1089V127.679H90.5512C90.6351 127.679 90.6996 127.691 90.7462 127.713Z" fill="#FDFCFC"/>
<path d="M112.636 127.679V128.47H108.271V140.554H107.375V128.47H102.982V127.679H112.636Z" fill="#FDFCFC"/>
<path d="M116.927 140.554H115.854V127.679H116.927V140.554Z" fill="#FDFCFC"/>
<path d="M133.018 134.113C133.018 135.109 132.855 136.003 132.532 136.796C132.209 137.592 131.752 138.268 131.166 138.827C130.579 139.385 129.874 139.812 129.056 140.108C128.236 140.406 127.328 140.554 126.33 140.554H121.218V127.679H126.33C127.327 127.679 128.236 127.828 129.056 128.124C129.874 128.422 130.578 128.85 131.166 129.407C131.753 129.966 132.209 130.642 132.532 131.436C132.855 132.232 133.018 133.124 133.018 134.113ZM131.968 134.113C131.968 133.216 131.831 132.414 131.561 131.711C131.29 131.008 130.909 130.412 130.417 129.928C129.925 129.441 129.331 129.071 128.637 128.817C127.946 128.563 127.176 128.436 126.328 128.436H122.237V139.799H126.328C127.174 139.799 127.944 139.672 128.637 139.417C129.331 139.162 129.925 138.791 130.417 138.307C130.908 137.821 131.289 137.227 131.561 136.524C131.832 135.821 131.968 135.017 131.968 134.113Z" fill="#FDFCFC"/>
<path d="M145.891 140.554H145.151C145.062 140.554 144.991 140.532 144.936 140.485C144.879 140.439 144.835 140.381 144.804 140.308L143.239 136.568H136.732L135.177 140.308C135.152 140.374 135.108 140.431 135.046 140.481C134.985 140.528 134.909 140.552 134.821 140.552H134.091L139.513 127.679H140.469L145.891 140.554ZM137.02 135.877H142.958L140.254 129.373C140.209 129.271 140.166 129.153 140.122 129.022C140.079 128.892 140.034 128.754 139.99 128.607C139.946 128.753 139.904 128.892 139.86 129.022C139.817 129.152 139.773 129.272 139.728 129.381L137.02 135.877Z" fill="#FDFCFC"/>
<path d="M40.9649 111.764H47.5705V93.0249C47.5705 92.2985 47.5922 91.5345 47.6372 90.7346L42.9476 94.6025C42.7528 94.7656 42.5532 94.8773 42.3498 94.937C42.1465 94.9967 41.9477 95.0258 41.7529 95.0258C41.4524 95.0258 41.1784 94.9631 40.9292 94.8368C40.6816 94.7105 40.4968 94.5658 40.3773 94.4035L38.6182 92.0252L48.561 83.6885H53.1381V111.764H59V115.876H40.9649V111.764Z" fill="#FDFCFC"/>
<path d="M85.8183 100.32C85.8183 103.155 85.5177 105.619 84.9174 107.712C84.3155 109.805 83.4844 111.535 82.424 112.898C81.3629 114.264 80.1078 115.28 78.6611 115.948C77.2135 116.616 75.6517 116.949 73.9742 116.949C72.2966 116.949 70.7417 116.615 69.3095 115.948C67.8773 115.281 66.6337 114.265 65.5803 112.898C64.526 111.534 63.7018 109.805 63.1084 107.712C62.515 105.619 62.2183 103.155 62.2183 100.32C62.2183 97.4689 62.5142 95.0017 63.1084 92.9157C63.7018 90.8313 64.526 89.1057 65.5803 87.7403C66.6345 86.375 67.8773 85.3583 69.3095 84.6904C70.7417 84.0232 72.2966 83.6885 73.9742 83.6885C75.6517 83.6885 77.2135 84.0232 78.6611 84.6904C80.1078 85.3583 81.3629 86.375 82.424 87.7403C83.4852 89.1057 84.317 90.8305 84.9174 92.9157C85.5177 95.0017 85.8183 97.4689 85.8183 100.32ZM80.1408 100.32C80.1408 97.9648 79.9698 96.0137 79.6286 94.4686C79.2875 92.9235 78.8305 91.693 78.2585 90.7778C77.6866 89.8627 77.0295 89.2211 76.2881 88.8538C75.5459 88.4865 74.7738 88.3021 73.9726 88.3021C73.186 88.3021 72.4254 88.4865 71.6902 88.8538C70.9556 89.2219 70.3062 89.8635 69.742 90.7778C69.1777 91.693 68.7284 92.9235 68.3949 94.4686C68.0606 96.0137 67.8942 97.9648 67.8942 100.32C67.8942 102.675 68.0606 104.625 68.3949 106.17C68.7291 107.715 69.1777 108.946 69.742 109.861C70.3062 110.777 70.9556 111.417 71.6902 111.785C72.4254 112.152 73.186 112.335 73.9726 112.335C74.7738 112.335 75.5459 112.151 76.2881 111.785C77.0303 111.415 77.6866 110.776 78.2585 109.861C78.8305 108.946 79.2859 107.715 79.6286 106.17C79.9698 104.624 80.1408 102.674 80.1408 100.32Z" fill="#FDFCFC"/>
<path d="M111.564 100.32C111.564 103.155 111.262 105.619 110.662 107.712C110.061 109.805 109.23 111.535 108.169 112.898C107.107 114.264 105.853 115.28 104.406 115.948C102.958 116.616 101.397 116.949 99.7192 116.949C98.0417 116.949 96.4868 116.615 95.0539 115.948C93.6225 115.281 92.3789 114.265 91.3255 112.898C90.2713 111.534 89.4479 109.805 88.8545 107.712C88.2611 105.619 87.9636 103.155 87.9636 100.32C87.9636 97.4689 88.2603 95.0017 88.8545 92.9157C89.4479 90.8313 90.2713 89.1057 91.3255 87.7403C92.3789 86.375 93.6225 85.3583 95.0539 84.6904C96.4861 84.0232 98.0417 83.6885 99.7192 83.6885C101.397 83.6885 102.959 84.0232 104.406 84.6904C105.853 85.3583 107.107 86.375 108.169 87.7403C109.23 89.1057 110.061 90.8305 110.662 92.9157C111.262 95.0017 111.564 97.4689 111.564 100.32ZM105.886 100.32C105.886 97.9648 105.715 96.0137 105.373 94.4686C105.031 92.9235 104.575 91.693 104.003 90.7778C103.431 89.8627 102.775 89.2211 102.033 88.8538C101.291 88.4865 100.519 88.3021 99.7176 88.3021C98.931 88.3021 98.1697 88.4865 97.4352 88.8538C96.7 89.2219 96.0506 89.8635 95.4863 90.7778C94.9228 91.693 94.4743 92.9235 94.14 94.4686C93.805 96.0137 93.6394 97.9648 93.6394 100.32C93.6394 102.675 93.8057 104.625 94.14 106.17C94.4743 107.715 94.9228 108.946 95.4863 109.861C96.0506 110.777 96.7 111.417 97.4352 111.785C98.1697 112.152 98.9295 112.335 99.7176 112.335C100.52 112.335 101.291 112.151 102.033 111.785C102.776 111.415 103.432 110.776 104.003 109.861C104.575 108.946 105.031 107.715 105.373 106.17C105.715 104.624 105.886 102.674 105.886 100.32Z" fill="#FDFCFC"/>
<path d="M129.75 91.897C129.75 93.1268 129.544 94.2365 129.133 95.2261C128.722 96.2143 128.173 97.0583 127.487 97.7561C126.798 98.453 126 98.9889 125.089 99.3637C124.177 99.737 123.229 99.9252 122.243 99.9252C121.167 99.9252 120.173 99.7377 119.263 99.3637C118.352 98.9889 117.563 98.453 116.9 97.7561C116.235 97.0583 115.715 96.215 115.342 95.2261C114.968 94.2365 114.782 93.1268 114.782 91.897C114.782 90.6379 114.968 89.4987 115.342 88.4789C115.714 87.459 116.235 86.5971 116.9 85.8924C117.564 85.1877 118.352 84.6449 119.263 84.2623C120.174 83.879 121.168 83.6885 122.243 83.6885C123.318 83.6885 124.317 83.8798 125.235 84.2623C126.153 84.6449 126.95 85.1877 127.621 85.8924C128.293 86.5971 128.816 87.459 129.19 88.4789C129.562 89.4987 129.75 90.6371 129.75 91.897ZM140.528 84.9035C140.707 84.6781 140.93 84.476 141.199 84.2956C141.469 84.1159 141.842 84.0253 142.32 84.0253H146.332L122.263 115.712C122.084 115.953 121.856 116.151 121.579 116.309C121.302 116.467 120.971 116.544 120.583 116.544H116.459L140.528 84.9035ZM125.469 91.897C125.469 91.0274 125.387 90.3002 125.222 89.7156C125.058 89.1309 124.83 88.6593 124.538 88.2992C124.248 87.9399 123.904 87.6812 123.507 87.5233C123.111 87.3661 122.69 87.2871 122.241 87.2871C121.794 87.2871 121.374 87.3653 120.986 87.5233C120.597 87.6812 120.261 87.9399 119.977 88.2992C119.694 88.6593 119.474 89.1317 119.316 89.7156C119.159 90.3002 119.082 91.0274 119.082 91.897C119.082 92.7365 119.159 93.4373 119.316 93.9995C119.474 94.5625 119.693 95.0155 119.977 95.3609C120.261 95.7055 120.597 95.9533 120.986 96.1028C121.374 96.253 121.794 96.3281 122.241 96.3281C122.69 96.3281 123.112 96.253 123.507 96.1028C123.904 95.9533 124.248 95.7055 124.538 95.3609C124.83 95.0155 125.057 94.5625 125.222 93.9995C125.386 93.4373 125.469 92.7365 125.469 91.897ZM148.036 108.899C148.036 110.128 147.83 111.238 147.419 112.227C147.008 113.216 146.459 114.06 145.772 114.758C145.084 115.455 144.285 115.995 143.375 116.376C142.463 116.759 141.515 116.949 140.529 116.949C139.453 116.949 138.46 116.759 137.549 116.376C136.639 115.995 135.849 115.456 135.186 114.758C134.521 114.061 134.002 113.217 133.628 112.227C133.255 111.238 133.068 110.128 133.068 108.899C133.068 107.639 133.254 106.499 133.628 105.481C134.001 104.462 134.521 103.599 135.186 102.893C135.849 102.189 136.639 101.646 137.549 101.264C138.461 100.882 139.454 100.691 140.529 100.691C141.605 100.691 142.602 100.882 143.52 101.264C144.439 101.646 145.235 102.189 145.907 102.893C146.579 103.599 147.103 104.461 147.476 105.481C147.849 106.499 148.036 107.639 148.036 108.899ZM143.777 108.899C143.777 108.029 143.693 107.302 143.52 106.717C143.348 106.133 143.117 105.66 142.825 105.301C142.533 104.941 142.191 104.682 141.794 104.525C141.398 104.368 140.977 104.288 140.528 104.288C140.081 104.288 139.661 104.368 139.272 104.525C138.884 104.682 138.552 104.941 138.275 105.301C138.001 105.66 137.779 106.133 137.615 106.717C137.451 107.302 137.369 108.029 137.369 108.899C137.369 109.739 137.45 110.443 137.615 111.012C137.779 111.581 138 112.039 138.275 112.384C138.552 112.73 138.884 112.977 139.272 113.126C139.661 113.276 140.081 113.352 140.528 113.352C140.977 113.352 141.399 113.276 141.794 113.126C142.191 112.977 142.534 112.73 142.825 112.384C143.116 112.04 143.348 111.582 143.52 111.012C143.693 110.443 143.777 109.739 143.777 108.899Z" fill="#FDFCFC"/>
<path d="M91.7181 17.167C49.9517 17.167 16.0908 51.0291 16.0908 92.8126C16.0908 134.581 49.9517 168.45 91.7181 168.45C133.484 168.45 167.345 134.582 167.345 92.8126C167.346 51.0291 133.484 17.167 91.7181 17.167ZM91.7181 167.414C50.5245 167.414 17.1268 134.01 17.1268 92.8126C17.1268 51.6013 50.5237 18.2032 91.7181 18.2032C132.912 18.2032 166.309 51.6013 166.309 92.8126C166.309 134.01 132.912 167.414 91.7181 167.414Z" fill="#FDFCFC"/>
</svg>
